[h264 @ 0x55f6b444b640] Reinit context to 1280x720, pix_fmt: yuv420p
Input #0, mov,mp4,m4a,3gp,3g2,mj2, from '/var/www/html/project/media/video/original/VID_20230527_170832_310.mp4':
  Metadata:
    major_brand     : isom
    minor_version   : 512
    compatible_brands: isomiso2avc1mp41
    creation_time   : 2023-05-27T15:01:07.000000Z
  Duration: 00:01:08.27, start: 0.000000, bitrate: 3258 kb/s
    Stream #0:0(eng): Audio: aac (LC) (mp4a / 0x6134706D), 44100 Hz, stereo, fltp, 128 kb/s (default)
    Metadata:
      creation_time   : 2023-05-27T14:59:57.000000Z
      handler_name    : SoundHandle
    Stream #0:1(eng): Video: h264 (High), 1 reference frame (avc1 / 0x31637661), yuv420p(tv, bt709, left), 1280x720, 3122 kb/s, 30 fps, 30 tbr, 90k tbn, 180k tbc (default)
    Metadata:
      creation_time   : 2023-05-27T14:59:57.000000Z
      handler_name    : VideoHandle
Input #1, png_pipe, from '/var/www/html/project/static/images/templates/logo.png':
  Duration: N/A, bitrate: N/A
    Stream #1:0: Video: png, 1 reference frame, rgba(pc), 1920x1080 [SAR 2835:2835 DAR 16:9], 25 tbr, 25 tbn, 25 tbc
[h264 @ 0x55f6b44a4a80] Reinit context to 1280x720, pix_fmt: yuv420p
Input #2, mov,mp4,m4a,3gp,3g2,mj2, from '/var/www/html/project/static/images/templates/Codino.mp4':
  Metadata:
    major_brand     : mp42
    minor_version   : 1
    compatible_brands: isommp41mp42
    creation_time   : 2021-07-11T07:02:58.000000Z
  Duration: 00:00:02.00, start: 0.000000, bitrate: 1007 kb/s
    Stream #2:0(ita): Audio: aac (LC) (mp4a / 0x6134706D), 44100 Hz, stereo, fltp, 102 kb/s (default)
    Metadata:
      creation_time   : 2021-07-11T07:02:58.000000Z
      handler_name    : Core Media Audio
    Stream #2:1(und): Video: h264 (High), 1 reference frame (avc1 / 0x31637661), yuv420p(tv, bt709, progressive, left), 1280x720 [SAR 1:1 DAR 16:9], 813 kb/s, 25 fps, 25 tbr, 25k tbn, 50k tbc (default)
    Metadata:
      creation_time   : 2021-07-11T07:02:58.000000Z
      handler_name    : Core Media Video
[Parsed_scale_0 @ 0x55f6b44d2b80] w:1280 h:720 flags:'bilinear' interl:0
[Parsed_scale_2 @ 0x55f6b450a280] w:1280 h:720 flags:'bilinear' interl:0
[Parsed_scale_4 @ 0x55f6b44bd3c0] w:1280 h:720 flags:'bilinear' interl:0
Stream mapping:
  Stream #0:0 (aac) -> concat:in0:a0
  Stream #0:1 (h264) -> scale
  Stream #1:0 (png) -> scale
  Stream #2:0 (aac) -> concat:in1:a0
  Stream #2:1 (h264) -> scale
  concat:out:v0 -> Stream #0:0 (libx264)
  concat:out:a0 -> Stream #0:1 (aac)
Press [q] to stop, [?] for help
[h264 @ 0x55f6b4486100] Reinit context to 1280x720, pix_fmt: yuv420p
[h264 @ 0x55f6b48fae40] Reinit context to 1280x720, pix_fmt: yuv420p
[Parsed_scale_0 @ 0x55f6b57409c0] w:1280 h:720 flags:'bilinear' interl:0
[Parsed_scale_2 @ 0x55f6b5749440] w:1280 h:720 flags:'bilinear' interl:0
[Parsed_scale_4 @ 0x55f6b574a4c0] w:1280 h:720 flags:'bilinear' interl:0
[graph 0 input from stream 0:1 @ 0x55f6b574ecc0] w:1280 h:720 pixfmt:yuv420p tb:1/90000 fr:30/1 sar:0/1 sws_param:flags=2
[graph 0 input from stream 1:0 @ 0x55f6b574fd40] w:1920 h:1080 pixfmt:rgba tb:1/25 fr:25/1 sar:2835/2835 sws_param:flags=2
[graph 0 input from stream 2:1 @ 0x55f6b5750dc0] w:1280 h:720 pixfmt:yuv420p tb:1/25000 fr:25/1 sar:1/1 sws_param:flags=2
[graph_0_in_0_0 @ 0x55f6b5751d40] tb:1/44100 samplefmt:fltp samplerate:44100 chlayout:0x3
[graph_0_in_2_0 @ 0x55f6b5752e80] tb:1/44100 samplefmt:fltp samplerate:44100 chlayout:0x3
[Parsed_scale_0 @ 0x55f6b57409c0] w:1280 h:720 fmt:yuv420p sar:0/1 -> w:1280 h:720 fmt:yuv420p sar:0/1 flags:0x2
[Parsed_setsar_1 @ 0x55f6b44d57c0] w:1280 h:720 sar:0/1 dar:16/9 -> sar:1/1 dar:16/9
[Parsed_scale_2 @ 0x55f6b5749440] w:1920 h:1080 fmt:rgba sar:2835/2835 -> w:1280 h:720 fmt:yuva420p sar:1/1 flags:0x2
[Parsed_setsar_3 @ 0x55f6b5749940] w:1280 h:720 sar:1/1 dar:16/9 -> sar:1/1 dar:16/9
[Parsed_overlay_6 @ 0x55f6b574bc00] main w:1280 h:720 fmt:yuv420p overlay w:1280 h:720 fmt:yuva420p
[Parsed_overlay_6 @ 0x55f6b574bc00] [framesync @ 0x55f6b574bd68] Selected 1/90000 time base
[Parsed_overlay_6 @ 0x55f6b574bc00] [framesync @ 0x55f6b574bd68] Sync level 2
[Parsed_scale_4 @ 0x55f6b574a4c0] w:1280 h:720 fmt:yuv420p sar:1/1 -> w:1280 h:720 fmt:yuv420p sar:1/1 flags:0x2
[Parsed_setsar_5 @ 0x55f6b574b000] w:1280 h:720 sar:1/1 dar:16/9 -> sar:1/1 dar:16/9
[libx264 @ 0x55f6b450ca00] using SAR=1/1
[libx264 @ 0x55f6b450ca00] using cpu capabilities: MMX2 SSE2Fast SSSE3 SSE4.2 AVX FMA3 BMI2 AVX2
[libx264 @ 0x55f6b450ca00] profile High, level 3.1
[libx264 @ 0x55f6b450ca00] 264 - core 155 r2917 0a84d98 - H.264/MPEG-4 AVC codec - Copyleft 2003-2018 - http://www.videolan.org/x264.html - options: cabac=1 ref=1 deblock=1:0:0 analyse=0x3:0x113 me=hex subme=2 psy=1 psy_rd=1.00:0.00 mixed_ref=0 me_range=16 chroma_me=1 trellis=0 8x8dct=1 cqm=0 deadzone=21,11 fast_pskip=1 chroma_qp_offset=0 threads=22 lookahead_threads=5 sliced_threads=0 nr=0 decimate=1 interlaced=0 bluray_compat=0 constrained_intra=0 bframes=3 b_pyramid=2 b_adapt=1 b_bias=0 direct=1 weightb=1 open_gop=0 weightp=1 keyint=250 keyint_min=25 scenecut=40 intra_refresh=0 rc_lookahead=10 rc=crf mbtree=1 crf=18.0 qcomp=0.60 qpmin=0 qpmax=69 qpstep=4 ip_ratio=1.40 aq=1:1.00
Output #0, mp4, to '/var/www/html/project/media/video/watermarks/VID_20230527_170832_310.mp4':
  Metadata:
    major_brand     : isom
    minor_version   : 512
    compatible_brands: isomiso2avc1mp41
    encoder         : Lavf58.29.100
    Stream #0:0: Video: h264 (libx264), 1 reference frame (avc1 / 0x31637661), yuv420p(progressive), 1280x720 [SAR 1:1 DAR 16:9], q=-1--1, 30 fps, 15360 tbn, 30 tbc (default)
    Metadata:
      encoder         : Lavc58.54.100 libx264
    Side data:
      cpb: bitrate max/min/avg: 0/0/0 buffer size: 0 vbv_delay: -1
    Stream #0:1: Audio: aac (LC) (mp4a / 0x6134706D), 44100 Hz, stereo, fltp, delay 1024, 128 kb/s (default)
    Metadata:
      encoder         : Lavc58.54.100 aac
[Parsed_concat_7 @ 0x55f6b574cd40] EOF on in0:a0, 1 streams left in segment.
[Parsed_overlay_6 @ 0x55f6b574bc00] [framesync @ 0x55f6b574bd68] Sync level 0
[Parsed_concat_7 @ 0x55f6b574cd40] EOF on in0:v0, 0 streams left in segment.
[Parsed_concat_7 @ 0x55f6b574cd40] Segment finished at pts=68266667
[Parsed_concat_7 @ 0x55f6b574cd40] EOF on in1:a0, 1 streams left in segment.
[Parsed_concat_7 @ 0x55f6b574cd40] EOF on in1:v0, 0 streams left in segment.
[Parsed_concat_7 @ 0x55f6b574cd40] Segment finished at pts=70285352
No more output streams to write to, finishing.
frame= 2098 fps= 89 q=-1.0 Lsize=   37891kB time=00:01:10.28 bitrate=4416.3kbits/s speed=2.99x    
[AVIOContext @ 0x55f6b4444440] Statistics: 0 seeks, 47 writeouts
video:36710kB audio:1107kB subtitle:0kB other streams:0kB global headers:0kB muxing overhead: 0.199281%
Input file #0 (/var/www/html/project/media/video/original/VID_20230527_170832_310.mp4):
  Input stream #0:0 (audio): 2940 packets read (1100686 bytes); 2940 frames decoded (3010560 samples); 
  Input stream #0:1 (video): 2048 packets read (26648161 bytes); 2048 frames decoded; 
  Total: 4988 packets (27748847 bytes) demuxed
Input file #1 (/var/www/html/project/static/images/templates/logo.png):
  Input stream #1:0 (video): 1 packets read (111578 bytes); 1 frames decoded; 
  Total: 1 packets (111578 bytes) demuxed
Input file #2 (/var/www/html/project/static/images/templates/Codino.mp4):
  Input stream #2:0 (audio): 89 packets read (26579 bytes); 87 frames decoded (89024 samples); 
  Input stream #2:1 (video): 50 packets read (203365 bytes); 50 frames decoded; 
  Total: 139 packets (229944 bytes) demuxed
Output file #0 (/var/www/html/project/media/video/watermarks/VID_20230527_170832_310.mp4):
  Output stream #0:0 (video): 2098 frames encoded; 2098 packets muxed (37590600 bytes); 
  Output stream #0:1 (audio): 3027 frames encoded (3099584 samples); 3028 packets muxed (1133096 bytes); 
  Total: 5126 packets (38723696 bytes) muxed
[AVIOContext @ 0x55f6b44bcb40] Statistics: 2 seeks, 151 writeouts
[libx264 @ 0x55f6b450ca00] frame I:12    Avg QP:15.98  size: 87858
[libx264 @ 0x55f6b450ca00] frame P:574   Avg QP:19.04  size: 32651
[libx264 @ 0x55f6b450ca00] frame B:1512  Avg QP:21.72  size: 11768
[libx264 @ 0x55f6b450ca00] consecutive B-frames:  3.0%  1.8%  3.1% 92.1%
[libx264 @ 0x55f6b450ca00] mb I  I16..4:  7.6% 30.8% 61.7%
[libx264 @ 0x55f6b450ca00] mb P  I16..4:  5.8% 23.7%  6.5%  P16..4: 25.7% 15.2% 11.3%  0.0%  0.0%    skip:11.7%
[libx264 @ 0x55f6b450ca00] mb B  I16..4:  1.9%  6.8%  0.8%  B16..8: 27.8% 12.5%  2.3%  direct:10.4%  skip:37.5%  L0:43.5% L1:36.3% BI:20.2%
[libx264 @ 0x55f6b450ca00] 8x8 transform intra:66.9% inter:42.2%
[libx264 @ 0x55f6b450ca00] coded y,uvDC,uvAC intra: 66.8% 51.6% 12.1% inter: 18.5% 17.9% 1.0%
[libx264 @ 0x55f6b450ca00] i16 v,h,dc,p: 37% 27% 19% 17%
[libx264 @ 0x55f6b450ca00] i8 v,h,dc,ddl,ddr,vr,hd,vl,hu: 19% 26% 18%  6%  6%  5%  7%  6%  7%
[libx264 @ 0x55f6b450ca00] i4 v,h,dc,ddl,ddr,vr,hd,vl,hu: 21% 27% 10%  6%  8%  6%  8%  6%  7%
[libx264 @ 0x55f6b450ca00] i8c dc,h,v,p: 46% 26% 19%  9%
[libx264 @ 0x55f6b450ca00] Weighted P-Frames: Y:11.0% UV:2.1%
[libx264 @ 0x55f6b450ca00] kb/s:4279.69
[aac @ 0x55f6b4481980] Qavg: 918.363
[AVIOContext @ 0x55f6b444d3c0] Statistics: 27858764 bytes read, 2 seeks
[AVIOContext @ 0x55f6b44a6700] Statistics: 111578 bytes read, 0 seeks
[AVIOContext @ 0x55f6b44ee780] Statistics: 1530915 bytes read, 42 seeks
